# xmcd
#
# Track frame offsets: 
#        180
#        19241
#        47225
#        81277
#        100599
#        131432
#        173688
#        194199
#        211743
#
# Disc length: 3183 seconds
#
# Revision: 0
# Processed by: cddbd v1.4PL0 Copyright (c) Steve Scherf et al.
# Submitted via: ExactAudioCopy v0.95a3
#
DISCID=760c6d09
DTITLE=Eric Clapton - Milwaukee Time
DYEAR=1983
DGENRE=Blues
TTITLE0=Tulsa Time
TTITLE1=I Shot The Sheriff
TTITLE2=Worried Life Blues
TTITLE3=Lay Down Sally
TTITLE4=Let It Rain
TTITLE5=Double Trouble
TTITLE6=Sweet Little Lisa
TTITLE7=Blow Wind Blow
TTITLE8=The Shape You're In
EXTD=
EXTT0=
EXTT1=
EXTT2=
EXTT3=
EXTT4=
EXTT5=
EXTT6=
EXTT7=
EXTT8=
PLAYORDER=
